<mxfile host="65bd71144e">
    <diagram id="AMSh8tCi0XrHw9n8mH9r" name="PÃ¡gina-1">
        <mxGraphModel dx="1414" dy="821" grid="1" gridSize="10" guides="1" tooltips="1" connect="1" arrows="1" fold="1" page="1" pageScale="1" pageWidth="1600" pageHeight="1200" background="#ffffff" math="0" shadow="0">
            <root>
                <mxCell id="0"/>
                <mxCell id="1" parent="0"/>
                <mxCell id="2" value="" style="fontStyle=1;align=center;verticalAlign=top;childLayout=stackLayout;horizontal=1;horizontalStack=0;resizeParent=1;resizeParentMax=0;resizeLast=0;marginBottom=0;fontColor=#000000;fillColor=#FFFFFF;strokeColor=#000000;" vertex="1" parent="1">
                    <mxGeometry x="360" y="80" width="140" height="40" as="geometry"/>
                </mxCell>
                <mxCell id="3" value="&lt;font color=&quot;#000000&quot;&gt;GestorAnalisis&lt;/font&gt;" style="html=1;align=left;spacingLeft=4;verticalAlign=top;fillColor=#FFFFFF;strokeColor=#000000;" vertex="1" parent="2">
                    <mxGeometry width="140" height="40" as="geometry"/>
                </mxCell>
                <mxCell id="4" value="" style="shape=module;jettyWidth=10;jettyHeight=4;fillColor=#FFFFFF;strokeColor=#000000;" vertex="1" parent="3">
                    <mxGeometry x="1" width="16" height="20" relative="1" as="geometry">
                        <mxPoint x="-25" y="9" as="offset"/>
                    </mxGeometry>
                </mxCell>
                <mxCell id="12" value="" style="fontStyle=1;align=center;verticalAlign=top;childLayout=stackLayout;horizontal=1;horizontalStack=0;resizeParent=1;resizeParentMax=0;resizeLast=0;marginBottom=0;fontColor=#000000;fillColor=#FFFFFF;strokeColor=#000000;" vertex="1" parent="1">
                    <mxGeometry x="360" y="170" width="140" height="40" as="geometry"/>
                </mxCell>
                <mxCell id="13" value="&lt;font color=&quot;#000000&quot;&gt;GestorArchivo&lt;/font&gt;" style="html=1;align=left;spacingLeft=4;verticalAlign=top;fillColor=#FFFFFF;strokeColor=#000000;" vertex="1" parent="12">
                    <mxGeometry width="140" height="40" as="geometry"/>
                </mxCell>
                <mxCell id="14" value="" style="shape=module;jettyWidth=10;jettyHeight=4;fillColor=#FFFFFF;strokeColor=#000000;" vertex="1" parent="13">
                    <mxGeometry x="1" width="16" height="20" relative="1" as="geometry">
                        <mxPoint x="-25" y="9" as="offset"/>
                    </mxGeometry>
                </mxCell>
                <mxCell id="16" value="" style="fontStyle=1;align=center;verticalAlign=top;childLayout=stackLayout;horizontal=1;horizontalStack=0;resizeParent=1;resizeParentMax=0;resizeLast=0;marginBottom=0;fontColor=#000000;fillColor=#FFFFFF;strokeColor=#000000;" vertex="1" parent="1">
                    <mxGeometry x="360" y="270" width="140" height="40" as="geometry"/>
                </mxCell>
                <mxCell id="17" value="&lt;font color=&quot;#000000&quot;&gt;GestorContacto&lt;/font&gt;" style="html=1;align=left;spacingLeft=4;verticalAlign=top;fillColor=#FFFFFF;strokeColor=#000000;" vertex="1" parent="16">
                    <mxGeometry width="140" height="40" as="geometry"/>
                </mxCell>
                <mxCell id="18" value="" style="shape=module;jettyWidth=10;jettyHeight=4;fillColor=#FFFFFF;strokeColor=#000000;" vertex="1" parent="17">
                    <mxGeometry x="1" width="16" height="20" relative="1" as="geometry">
                        <mxPoint x="-25" y="9" as="offset"/>
                    </mxGeometry>
                </mxCell>
                <mxCell id="20" value="&lt;font color=&quot;#000000&quot;&gt;Contacto&lt;/font&gt;" style="html=1;align=left;spacingLeft=4;verticalAlign=top;fillColor=#FFFFFF;strokeColor=#000000;" vertex="1" parent="1">
                    <mxGeometry x="680" y="174" width="140" height="40" as="geometry"/>
                </mxCell>
                <mxCell id="21" value="" style="shape=module;jettyWidth=10;jettyHeight=4;fillColor=#FFFFFF;strokeColor=#000000;" vertex="1" parent="20">
                    <mxGeometry x="1" width="16" height="20" relative="1" as="geometry">
                        <mxPoint x="-25" y="9" as="offset"/>
                    </mxGeometry>
                </mxCell>
                <mxCell id="28" value="" style="html=1;verticalAlign=bottom;labelBackgroundColor=none;endArrow=block;endFill=1;dashed=1;fontColor=#000000;strokeWidth=2;entryX=1;entryY=0.5;entryDx=0;entryDy=0;exitX=0;exitY=0.5;exitDx=0;exitDy=0;strokeColor=#000000;" edge="1" parent="1" source="20" target="3">
                    <mxGeometry width="160" relative="1" as="geometry">
                        <mxPoint x="510" y="540" as="sourcePoint"/>
                        <mxPoint x="670" y="540" as="targetPoint"/>
                    </mxGeometry>
                </mxCell>
                <mxCell id="29" value="" style="html=1;verticalAlign=bottom;labelBackgroundColor=none;endArrow=block;endFill=1;dashed=1;fontColor=#000000;strokeWidth=2;entryX=1;entryY=0.5;entryDx=0;entryDy=0;strokeColor=#000000;exitX=0;exitY=0.5;exitDx=0;exitDy=0;" edge="1" parent="1" source="20" target="13">
                    <mxGeometry width="160" relative="1" as="geometry">
                        <mxPoint x="680" y="200" as="sourcePoint"/>
                        <mxPoint x="510" y="110" as="targetPoint"/>
                    </mxGeometry>
                </mxCell>
                <mxCell id="30" value="" style="html=1;verticalAlign=bottom;labelBackgroundColor=none;endArrow=block;endFill=1;dashed=1;fontColor=#000000;strokeWidth=2;entryX=1;entryY=0.5;entryDx=0;entryDy=0;exitX=0;exitY=0.5;exitDx=0;exitDy=0;strokeColor=#000000;" edge="1" parent="1" source="20" target="17">
                    <mxGeometry width="160" relative="1" as="geometry">
                        <mxPoint x="700" y="214" as="sourcePoint"/>
                        <mxPoint x="520" y="120" as="targetPoint"/>
                    </mxGeometry>
                </mxCell>
                <mxCell id="31" value="" style="endArrow=open;startArrow=none;endFill=0;startFill=0;endSize=8;html=1;verticalAlign=bottom;labelBackgroundColor=none;strokeWidth=1;fontColor=#000000;" edge="1" parent="1">
                    <mxGeometry width="160" relative="1" as="geometry">
                        <mxPoint x="650" y="240" as="sourcePoint"/>
                        <mxPoint x="810" y="240" as="targetPoint"/>
                    </mxGeometry>
                </mxCell>
                <mxCell id="33" value="" style="endArrow=none;startArrow=diamondThin;endFill=0;startFill=1;html=1;verticalAlign=bottom;labelBackgroundColor=none;strokeWidth=1;startSize=8;endSize=8;fontColor=#000000;strokeColor=#000000;exitX=1.006;exitY=0.319;exitDx=0;exitDy=0;entryX=0.004;entryY=0.628;entryDx=0;entryDy=0;entryPerimeter=0;exitPerimeter=0;" edge="1" parent="1" source="20" target="38">
                    <mxGeometry width="160" relative="1" as="geometry">
                        <mxPoint x="840" y="193.58" as="sourcePoint"/>
                        <mxPoint x="950" y="194" as="targetPoint"/>
                    </mxGeometry>
                </mxCell>
                <mxCell id="36" value="&lt;font color=&quot;#000000&quot;&gt;N&lt;br&gt;&lt;/font&gt;" style="html=1;align=left;spacingLeft=4;verticalAlign=top;fillColor=#FFFFFF;strokeColor=#000000;" vertex="1" parent="1">
                    <mxGeometry x="960" y="80" width="140" height="40" as="geometry"/>
                </mxCell>
                <mxCell id="37" value="" style="shape=module;jettyWidth=10;jettyHeight=4;fillColor=#FFFFFF;strokeColor=#000000;" vertex="1" parent="36">
                    <mxGeometry x="1" width="16" height="20" relative="1" as="geometry">
                        <mxPoint x="-25" y="9" as="offset"/>
                    </mxGeometry>
                </mxCell>
                <mxCell id="38" value="&lt;font color=&quot;#000000&quot;&gt;Direccion&lt;br&gt;&lt;/font&gt;" style="html=1;align=left;spacingLeft=4;verticalAlign=top;fillColor=#FFFFFF;strokeColor=#000000;" vertex="1" parent="1">
                    <mxGeometry x="960" y="150" width="140" height="40" as="geometry"/>
                </mxCell>
                <mxCell id="39" value="" style="shape=module;jettyWidth=10;jettyHeight=4;fillColor=#FFFFFF;strokeColor=#000000;" vertex="1" parent="38">
                    <mxGeometry x="1" width="16" height="20" relative="1" as="geometry">
                        <mxPoint x="-25" y="9" as="offset"/>
                    </mxGeometry>
                </mxCell>
                <mxCell id="40" value="&lt;font color=&quot;#000000&quot;&gt;Telefono&lt;/font&gt;" style="html=1;align=left;spacingLeft=4;verticalAlign=top;fillColor=#FFFFFF;strokeColor=#000000;" vertex="1" parent="1">
                    <mxGeometry x="960" y="220" width="140" height="40" as="geometry"/>
                </mxCell>
                <mxCell id="41" value="" style="shape=module;jettyWidth=10;jettyHeight=4;fillColor=#FFFFFF;strokeColor=#000000;" vertex="1" parent="40">
                    <mxGeometry x="1" width="16" height="20" relative="1" as="geometry">
                        <mxPoint x="-25" y="9" as="offset"/>
                    </mxGeometry>
                </mxCell>
                <mxCell id="42" value="&lt;font color=&quot;#000000&quot;&gt;Email&lt;/font&gt;" style="html=1;align=left;spacingLeft=4;verticalAlign=top;fillColor=#FFFFFF;strokeColor=#000000;" vertex="1" parent="1">
                    <mxGeometry x="960" y="290" width="140" height="40" as="geometry"/>
                </mxCell>
                <mxCell id="43" value="" style="shape=module;jettyWidth=10;jettyHeight=4;fillColor=#FFFFFF;strokeColor=#000000;" vertex="1" parent="42">
                    <mxGeometry x="1" width="16" height="20" relative="1" as="geometry">
                        <mxPoint x="-25" y="9" as="offset"/>
                    </mxGeometry>
                </mxCell>
                <mxCell id="44" value="" style="endArrow=none;startArrow=diamondThin;endFill=0;startFill=1;html=1;verticalAlign=bottom;labelBackgroundColor=none;strokeWidth=1;startSize=8;endSize=8;fontColor=#000000;strokeColor=#000000;entryX=0;entryY=0.5;entryDx=0;entryDy=0;exitX=0.999;exitY=0.222;exitDx=0;exitDy=0;exitPerimeter=0;" edge="1" parent="1" source="20" target="36">
                    <mxGeometry width="160" relative="1" as="geometry">
                        <mxPoint x="820" y="190" as="sourcePoint"/>
                        <mxPoint x="970.56" y="185.12" as="targetPoint"/>
                    </mxGeometry>
                </mxCell>
                <mxCell id="45" value="" style="endArrow=none;startArrow=diamondThin;endFill=0;startFill=1;html=1;verticalAlign=bottom;labelBackgroundColor=none;strokeWidth=1;startSize=8;endSize=8;fontColor=#000000;strokeColor=#000000;entryX=0;entryY=0.5;entryDx=0;entryDy=0;exitX=1.002;exitY=0.457;exitDx=0;exitDy=0;exitPerimeter=0;" edge="1" parent="1" source="20" target="40">
                    <mxGeometry width="160" relative="1" as="geometry">
                        <mxPoint x="840" y="214" as="sourcePoint"/>
                        <mxPoint x="980.56" y="195.12" as="targetPoint"/>
                    </mxGeometry>
                </mxCell>
                <mxCell id="46" value="" style="endArrow=none;startArrow=diamondThin;endFill=0;startFill=1;html=1;verticalAlign=bottom;labelBackgroundColor=none;strokeWidth=1;startSize=8;endSize=8;fontColor=#000000;strokeColor=#000000;exitX=1;exitY=0.611;exitDx=0;exitDy=0;exitPerimeter=0;" edge="1" parent="1" source="20">
                    <mxGeometry width="160" relative="1" as="geometry">
                        <mxPoint x="821" y="220" as="sourcePoint"/>
                        <mxPoint x="960" y="310" as="targetPoint"/>
                    </mxGeometry>
                </mxCell>
                <mxCell id="47" value="" style="fontStyle=1;align=center;verticalAlign=top;childLayout=stackLayout;horizontal=1;horizontalStack=0;resizeParent=1;resizeParentMax=0;resizeLast=0;marginBottom=0;fontColor=#000000;fillColor=#FFFFFF;strokeColor=#000000;" vertex="1" parent="1">
                    <mxGeometry x="100" y="170" width="140" height="40" as="geometry"/>
                </mxCell>
                <mxCell id="48" value="&lt;font color=&quot;#000000&quot;&gt;SmartScheduler&lt;/font&gt;" style="html=1;align=left;spacingLeft=4;verticalAlign=top;fillColor=#FFFFFF;strokeColor=#000000;" vertex="1" parent="47">
                    <mxGeometry width="140" height="40" as="geometry"/>
                </mxCell>
                <mxCell id="49" value="" style="shape=module;jettyWidth=10;jettyHeight=4;fillColor=#FFFFFF;strokeColor=#000000;" vertex="1" parent="48">
                    <mxGeometry x="1" width="16" height="20" relative="1" as="geometry">
                        <mxPoint x="-25" y="9" as="offset"/>
                    </mxGeometry>
                </mxCell>
                <mxCell id="50" value="&lt;font color=&quot;#000000&quot;&gt;Photo&lt;/font&gt;" style="html=1;align=left;spacingLeft=4;verticalAlign=top;fillColor=#FFFFFF;strokeColor=#000000;" vertex="1" parent="1">
                    <mxGeometry x="960" y="360" width="140" height="40" as="geometry"/>
                </mxCell>
                <mxCell id="51" value="" style="shape=module;jettyWidth=10;jettyHeight=4;fillColor=#FFFFFF;strokeColor=#000000;" vertex="1" parent="50">
                    <mxGeometry x="1" width="16" height="20" relative="1" as="geometry">
                        <mxPoint x="-25" y="9" as="offset"/>
                    </mxGeometry>
                </mxCell>
                <mxCell id="52" value="" style="endArrow=none;startArrow=diamondThin;endFill=0;startFill=1;html=1;verticalAlign=bottom;labelBackgroundColor=none;strokeWidth=1;startSize=8;endSize=8;fontColor=#000000;strokeColor=#000000;entryX=0;entryY=0.5;entryDx=0;entryDy=0;exitX=0.998;exitY=0.802;exitDx=0;exitDy=0;exitPerimeter=0;" edge="1" parent="1" source="20" target="50">
                    <mxGeometry width="160" relative="1" as="geometry">
                        <mxPoint x="820" y="210" as="sourcePoint"/>
                        <mxPoint x="970" y="320" as="targetPoint"/>
                    </mxGeometry>
                </mxCell>
                <mxCell id="53" value="" style="endArrow=none;startArrow=diamondThin;endFill=0;startFill=1;html=1;verticalAlign=bottom;labelBackgroundColor=none;strokeWidth=1;startSize=8;endSize=8;fontColor=#000000;strokeColor=#000000;entryX=0;entryY=0.5;entryDx=0;entryDy=0;exitX=1;exitY=0.2;exitDx=0;exitDy=0;exitPerimeter=0;" edge="1" parent="1" source="48" target="3">
                    <mxGeometry width="160" relative="1" as="geometry">
                        <mxPoint x="250" y="170" as="sourcePoint"/>
                        <mxPoint x="330.14" y="91.12" as="targetPoint"/>
                    </mxGeometry>
                </mxCell>
                <mxCell id="54" value="" style="endArrow=none;startArrow=diamondThin;endFill=0;startFill=1;html=1;verticalAlign=bottom;labelBackgroundColor=none;strokeWidth=1;startSize=8;endSize=8;fontColor=#000000;strokeColor=#000000;entryX=0;entryY=0.5;entryDx=0;entryDy=0;exitX=1;exitY=0.5;exitDx=0;exitDy=0;" edge="1" parent="1" source="48" target="13">
                    <mxGeometry width="160" relative="1" as="geometry">
                        <mxPoint x="252.24" y="196.20000000000005" as="sourcePoint"/>
                        <mxPoint x="370" y="110" as="targetPoint"/>
                    </mxGeometry>
                </mxCell>
                <mxCell id="55" value="" style="endArrow=none;startArrow=diamondThin;endFill=0;startFill=1;html=1;verticalAlign=bottom;labelBackgroundColor=none;strokeWidth=1;startSize=8;endSize=8;fontColor=#000000;strokeColor=#000000;entryX=0;entryY=0.5;entryDx=0;entryDy=0;exitX=1;exitY=0.75;exitDx=0;exitDy=0;" edge="1" parent="1" source="48" target="17">
                    <mxGeometry width="160" relative="1" as="geometry">
                        <mxPoint x="262.24" y="206.20000000000005" as="sourcePoint"/>
                        <mxPoint x="380" y="120" as="targetPoint"/>
                    </mxGeometry>
                </mxCell>
            </root>
        </mxGraphModel>
    </diagram>
</mxfile>